/* XPM */
static char *_2396632f38e425bc8b2dac77276f161[] = {
/* columns rows colors chars-per-pixel */
"32 32 174 2 ",
"   c #800080",
".  c #7F0081",
"X  c #8C1174",
"o  c #85097A",
"O  c #AB3D54",
"+  c #A12F5F",
"@  c #800180",
"#  c #B64D4A",
"$  c #D67929",
"%  c #8E1472",
"&  c #B2464E",
"*  c #D4772B",
"=  c #91186F",
"-  c #A63659",
";  c #C35F3C",
":  c #901770",
">  c #982268",
",  c #C25D3D",
"<  c #A3325C",
"1  c #8A0F75",
"2  c #BD5642",
"3  c #B64D49",
"4  c #880B78",
"5  c #82037E",
"6  c #B04350",
"7  c #9A2466",
"8  c #A6355A",
"9  c #B04450",
"0  c #A93957",
"q  c #86087A",
"w  c #7E0082",
"e  c #9E2B62",
"r  c #B44A4B",
"t  c #A93A57",
"y  c #931C6C",
"u  c #961F6A",
"i  c #B85048",
"p  c #AC3E54",
"a  c #A4325C",
"s  c #951E6B",
"d  c #C05B3F",
"f  c #AC3E53",
"g  c #A5345B",
"h  c #B0444F",
"j  c #DA7F25",
"k  c #BD5643",
"l  c #9D2962",
"z  c #85077B",
"x  c #D2732D",
"c  c #E28A1D",
"v  c #B64C49",
"b  c #870A79",
"n  c #870B78",
"m  c #D97E26",
"M  c #AC3F53",
"N  c #83047D",
"B  c #81027F",
"V  c #8B0F75",
"C  c #83067D",
"Z  c #84067C",
"A  c #C25C3E",
"S  c #D4762C",
"D  c #AB3C55",
"F  c #8F1670",
"G  c #941C6C",
"H  c #E69019",
"J  c #C76538",
"K  c #86097A",
"L  c #A73759",
"P  c #B54B4B",
"I  c #9F2C61",
"U  c #921A6D",
"Y  c #921A6E",
"T  c #8B1075",
"R  c #D4772C",
"E  c #FDB302",
"W  c #BE5841",
"Q  c #A4335C",
"!  c #A02E5F",
"~  c #7C0084",
"^  c #F3A20C",
"/  c #BC5543",
"(  c #E38D1C",
")  c #F5A60A",
"_  c #9B2764",
"`  c #A4335B",
"'  c #890D77",
"]  c #9B2665",
"[  c #E38C1D",
"{  c #F9AD06",
"}  c #A5355B",
"|  c #A93B57",
" . c #FDB102",
".. c #C96836",
"X. c #A93B56",
"o. c #9C2864",
"O. c #7F0181",
"+. c #F9AA06",
"@. c #BD5742",
"#. c #A2305E",
"$. c #F8AA07",
"%. c #D87C28",
"&. c #8D1473",
"*. c #E89317",
"=. c #EA9715",
"-. c #8F1671",
";. c #931B6D",
":. c #9A2566",
">. c #AE4152",
",. c #972169",
"<. c #E79218",
"1. c #F2A30D",
"2. c #982368",
"3. c #DD8322",
"4. c #F1A00E",
"5. c #D2732E",
"6. c #F7A808",
"7. c #982367",
"8. c #A5355A",
"9. c #D07130",
"0. c #F9AB06",
"q. c #9B2765",
"w. c #CC6C33",
"e. c #FCB003",
"r. c #A02E60",
"t. c #D3762C",
"y. c #F7A908",
"u. c #951F6A",
"i. c #CB6935",
"p. c #A12F5E",
"a. c #A3325D",
"s. c #A83957",
"d. c #992367",
"f. c #F09F0F",
"g. c #962069",
"h. c #DE8422",
"j. c #90186F",
"k. c #D2742D",
"l. c #951E6A",
"z. c #A73858",
"x. c #9C2764",
"c. c #AA3C55",
"v. c #F2A10D",
"b. c #D77B29",
"n. c #E99416",
"m. c #E99516",
"M. c #8A0F76",
"N. c #AD4152",
"B. c #B95147",
"V. c #9D2A63",
"C. c #941D6C",
"Z. c #E48F1B",
"A. c #F8AB07",
"S. c #AB3D55",
"D. c #FDB202",
"F. c #C86638",
"G. c #B74D49",
"H. c #C25E3D",
"J. c #7D0083",
"K. c #EF9C10",
"L. c #B95047",
"P. c #E5901A",
"I. c #F4A50B",
"U. c #81017F",
"Y. c #C4603B",
"T. c #83057D",
"R. c #D5792A",
"E. c #BB5444",
"W. c #9E2A62",
"Q. c #91196F",
"!. c #E28B1D",
"~. c #C5623A",
"^. c #85087B",
"/. c gray100",
/* pixels */
"                                                                ",
"                  .                                             ",
"                  X o                                           ",
"                . O + @                                         ",
"                . # $ % .                                       ",
"                . & * = .                                       ",
"                . - ; : .                                       ",
"                . > , < .                                       ",
"                . 1 2 3 4 .                                     ",
"                  5 6 & 7 .                                     ",
"                  . 8 9 0 q                                     ",
"                  w e r t y .                                   ",
"                  . u i p a .                                   ",
"                  . s d f g .                                   ",
"                    h j k l .                                   ",
"                  z x c v b             .                       ",
"                . n m c M N           B V C .                   ",
"                  Z A S D F .       w G H J K .                 ",
"                  . L P I U .     z Y T R E W @                 ",
"                    Q 8 ! : . . ~ t ^ / : ( ) _ w               ",
"                  5 g l ` b . ' ] s [ { } |  ...                ",
"                  b X.o.I O.~ 9 +.@.#.$.%.&.*.=.T .             ",
"                . -.- I ;.:.>.,.<.1.2.3.4.= 5.6.u .             ",
"                . 7.8.t 4 9.0.q.w.e.r.t.y.u.i.+.> w             ",
"                  p.a.+   ,.s.d.=.f.g.h.4.j.k.6.l..             ",
"                5 L z.x.. . ~ c.v.# a.0.b.% n.m.M..             ",
"                Z N.B.V.w     z = C.Z.A.a.S.D.F.                ",
"                Z G.H.g w       J.8.K.L.= P.I.:..               ",
"                U.@.Y.d..         T.% M.R.D.E.@                 ",
"                . W.= .             w Q.!.~.^..                 ",
"                  @ @                 U.' T..                   ",
"                                        .                       "
};
