/* XPM */
static char *c0281132bff94287cbc6d67fa08be929[] = {
/* columns rows colors chars-per-pixel */
"64 64 48 1 ",
"  c #C25D3E",
". c #D87C27",
"X c #D2742D",
"o c #D67A29",
"O c #C86637",
"+ c #CD6C33",
"@ c #C6633A",
"# c #C86538",
"$ c #CF7030",
"% c #A12E5F",
"& c #AB3C55",
"* c #A4335C",
"= c #A83958",
"- c #91176F",
"; c #931B6D",
": c #8A0E76",
"> c #82047E",
", c #86097A",
"< c #880C78",
"1 c #8D1373",
"2 c #901770",
"3 c #9A2566",
"4 c #9E2A62",
"5 c #972169",
"6 c #982368",
"7 c #A02E60",
"8 c #B84F47",
"9 c #B2464E",
"0 c #B54B4B",
"q c #B84F48",
"w c #BB5344",
"e c #BE5941",
"r c #AE4251",
"t c #B04350",
"y c #C05A40",
"u c #F09E0F",
"i c #E28B1D",
"p c #E99516",
"a c #EC9913",
"s c #E69019",
"d c #FAAD05",
"f c #F4A40B",
"g c #F7A908",
"h c #FFB400",
"j c #FFB800",
"k c #DD8323",
"l c #7E0082",
"z c #800080",
/* pixels */
"zzzzzzzzzzzzzzzzzzzzzzzzzzzzzzzzzzzzzzzzzzzzzzzzzzzzzzzzzzzzzzzz",
"zzzzzzzzzzzzzzzzzzzzzzzzzzzzzzzzzzzzzzzzzzzzzzzzzzzzzzzzzzzzzzzz",
"zzzzzzzzzzzzzzzzzzzzzzzzzzzzzzzzzzzzzzzzzzzzzzzzzzzzzzzzzzzzzzzz",
"zzzzzzzzzzzzzzzzzzzzzzzzzzzzzzzzzzzzzzzzzzzzzzzzzzzzzzzzzzzzzzzz",
"zzzzzzzzzzzzzzzzzzz>>>>lzzzzzzzzzzzzzzzzzzzzzzzzzzzzzzzzzzzzzzzz",
"zzzzzzzzzzzzzzzzzz>r2lllzzzzzzzzzzzzzzzzzzzzzzzzzzzzzzzzzzzzzzzz",
"zzzzzzzzzzzzzzzzzz<#2ll>zzzzzzzzzzzzzzzzzzzzzzzzzzzzzzzzzzzzzzzz",
"zzzzzzzzzzzzzzzzzl2k 2>lzzzzzzzzzzzzzzzzzzzzzzzzzzzzzzzzzzzzzzzz",
"zzzzzzzzzzzzzzzzzl-kp+1>zzzzzzzzzzzzzzzzzzzzzzzzzzzzzzzzzzzzzzzz",
"zzzzzzzzzzzzzzzzzz;.so3>zzzzzzzzzzzzzzzzzzzzzzzzzzzzzzzzzzzzzzzz",
"zzzzzzzzzzzzzzzzzl-.k.6lzzzzzzzzzzzzzzzzzzzzzzzzzzzzzzzzzzzzzzzz",
"zzzzzzzzzzzzzzzzzl2XXo5lzzzzzzzzzzzzzzzzzzzzzzzzzzzzzzzzzzzzzzzz",
"zzzzzzzzzzzzzzzzzz<++#;lzzzzzzzzzzzzzzzzzzzzzzzzzzzzzzzzzzzzzzzz",
"zzzzzzzzzzzzzzzzzz> @04lzzzzzzzzzzzzzzzzzzzzzzzzzzzzzzzzzzzzzzzz",
"zzzzzzzzzzzzzzzzzzl0+tq>zzzzzzzzzzzzzzzzzzzzzzzzzzzzzzzzzzzzzzzz",
"zzzzzzzzzzzzzzzzzzl%$w+-lzzzzzzzzzzzzzzzzzzzzzzzzzzzzzzzzzzzzzzz",
"zzzzzzzzzzzzzzzzzzl2+w+tzzzzzzzzzzzzzzzzzzzzzzzzzzzzzzzzzzzzzzzz",
"zzzzzzzzzzzzzzzzzz>>eeq8-lzzzzzzzzzzzzzzzzzzzzzzzzzzzzzzzzzzzzzz",
"zzzzzzzzzzzzzzzzzzzlte0&*>zzzzzzzzzzzzzzzzzzzzzzzzzzzzzzzzzzzzzz",
"zzzzzzzzzzzzzzzzzzzl4 0=02lzzzzzzzzzzzzzzzzzzzzzzzzzzzzzzzzzzzzz",
"zzzzzzzzzzzzzzzzzzzl2@t%t=lzzzzzzzzzzzzzzzzzzzzzzzzzzzzzzzzzzzzz",
"zzzzzzzzzzzzzzzzzzzz>Ot&rq<zzzzzzzzzzzzzzzzzzzzzzzzzzzzzzzzzzzzz",
"zzzzzzzzzzzzzzzzzzzzl@8&3t3lzzzzzzzzzzzzzzzzzzzzzzzzzzzzzzzzzzzz",
"zzzzzzzzzzzzzzzzzzzzlq &*&rzzzzzzzzzzzzzzzzzzzzzzzzzzzzzzzzzzzzz",
"zzzzzzzzzzzzzzzzzzzzl&#&=0e,zzzzzzzzzzzzzzzzzzzzzzzzzzzzzzzzzzzz",
"zzzzzzzzzzzzzzzzzzzzl*#q6r@1zzzzzzzzzzzzzzzzzzzzzzzzzzzzzzzzzzzz",
"zzzzzzzzzzzzzzzzzzzzl4#r4& 2lzzzzzzzzzzzzzzzzzzzzzzzzzzzzzzzzzzz",
"zzzzzzzzzzzzzzzzzzzzl*+#r*e1lzzzzzzzzzzzzzzzzzzzzzzzzzzzzzzzzzzz",
"zzzzzzzzzzzzzzzzzzzl1qiir0e,zzzzzzzzzzzzzzzzzzzzzzzzzzzzzzzzzzzz",
"zzzzzzzzzzzzzzzzzz>l%XuX&+0zzzzzzzzzzzzzzzzzzzzzzzzzzzzzzzzzzzzz",
"zzzzzzzzzzzzzzzzzzz>0fp+XX:lzzzzzzzzzzzzzzzzzzzzzzzzzzzzzzzzzzzz",
"zzzzzzzzzzzzzzzzzzz>egpkw2lzzzzzzzzzzzzzzzzzzzzzzzzzzzzzzzzzzzzz",
"zzzzzzzzzzzzzzzzzzl,#dpiq,ll>ll>zzzzzzzz>lz>lzzzzzzzzzzzzzzzzzzz",
"zzzzzzzzzzzzzzzzzzz,OdiX w>>l>llzzzzzzzz<1>zzzzzzzzzzzzzzzzzzzzz",
"zzzzzzzzzzzzzzzzzzz,ekp$rr3ll>l>zzzzzzl;ka+:lzzzzzzzzzzzzzzzzzzz",
"zzzzzzzzzzzzzzzzzzll*+pwr;=l>ll>zzzzzzz&jhhX:lzzzzzzzzzzzzzzzzzz",
"zzzzzzzzzzzzzzzzzzzl<@+**-&zl>llzzzllll2ijhh+>zzzzzzzzzzzzzzzzzz",
"zzzzzzzzzzzzzzzzzzzl<ew34%=l>ll>zzz,43>l6sjhdtlzzzzzzzzzzzzzzzzz",
"zzzzzzzzzzzzzzzzzzzz1e0*1r*z>ll>zzl@dfe>l4ujjp-zzzzzzzzzzzzzzzzz",
"zzzzzzzzzzzzzzzzzzzl2e*%<w;ll>llzz,kjjdwzz8dhj >zzzzzzzzzzzzzzzz",
"zzzzzzzzzzzzzzzzzzzl3q6%;e,lzz>llll=fjhf*z:ijha-lzzzzzzzzzzzzzzz",
"zzzzzzzzzzzzzzzzzzzl*&*2*tl>zz>-q=,>0dhjk<lrdhh9lzzzzzzzzzzzzzzz",
"zzzzzzzzzzzzzzzzzzz>9=&<04llz>>.jd#,>+hhh=l1pjjo>zzzzzzzzzzzzzzz",
"zzzzzzzzzzzzzzzzzzz,w%*:e<z>zl:ijjdql;fhj$>l+jha2lzzzzzzzzzzzzzz",
"zzzzzzzzzzzzzzzzzzz284;4tll>,>l*fhhp2z$jhp:l0jhg3ll>zzzzzzzzzzzz",
"zzzzzzzzzzzzzzzzzzz%r*103l1+sO1l hhd*lqhjf5l*djd%lzlzzzzzzzzzzzz",
"zzzzzzzzzzzzzzzzzzzr=%4e<l0jjj0l%gjhqlthhd%l7dhd*lzzzzzzzzzzzzzz",
"zzzzzzzzzzzzzzzzzz>0=699zlthjdrl*dhh0l9jhg4l*dhd%lzzzzzzzzzzzzzz",
"zzzzzzzzzzzzzzzzzl20&:04ll< k ,>@jjd*l8hjf5l=djd7llzzzzzzzzzzzzz",
"zzzzzzzzzzzzzzzzzl60=;e:lllz>>l&ghji<>Xhjp<l0hhf3lzzzzzzzzzzzzzz",
"zzzzzzzzzzzzzzzzzl4043e>zzzzll>ijhgrl3fhj+z>Xhja1lzzzzzzzzzzzzzz",
"zzzzzzzzzzzzzzzzz>*03tqlzzzz>>>@gfwz>Xhhd=l2ahjX>zzzzzzzzzzzzzzz",
"zzzzzzzzzzzzzzzzz>rq4#qlzzzzzzz,45>z8djjk,l0dhhtlzzzzzzzzzzzzzzz",
"zzzzzzzzzzzzzzzzzzte&$qlzzzzzzzzlzl&fhhf4l:ijhp2lzzzzzzzzzzzzzzz",
"zzzzzzzzzzzzzzzzz>0e=+yzzzzzzzzzl>>kjhg0zlwhhhezzzzzzzzzzzzzzzzz",
"zzzzzzzzzzzzzzzzzl9Xt@O>zzzzzzzzzllqfuq>l*fjjs2lzzzzzzzzzzzzzzzz",
"zzzzzzzzzzzzzzzzzl=i+X$1lzzzzzzzzzz>;->l3pjjg&lzzzzzzzzzzzzzzzzz",
"zzzzzzzzzzzzzzzzzl4iX%:>>zzzzzzzzzzzlzl2ihhd@>zzzzzzzzzzzzzzzzzz",
"zzzzzzzzzzzzzzzzzl1X*llzllzzzzzzzzzzzzl=hhj+<zzzzzzzzzzzzzzzzzzz",
"zzzzzzzzzzzzzzzzzl>*1lzzl>zzzzzzzzzzzll1Xa#:zzzzzzzzzzzzzzzzzzzz",
"zzzzzzzzzzzzzzzzzzzlzzzz>>l>zzzzzzzzzzzl>1>lzzzzzzzzzzzzzzzzzzzz",
"zzzzzzzzzzzzzzzzzzzzzzzzllllzzzzzzzzzzl>zlzzzzzzzzzzzzzzzzzzzzzz",
"zzzzzzzzzzzzzzzzzzzzzzzzzz>lzzzzzzzzzzzzzzzzzzzzzzzzzzzzzzzzzzzz",
"zzzzzzzzzzzzzzzzzzzzzzzzzzzzzzzzzzzzzzzzzzzzzzzzzzzzzzzzzzzzzzzz"
};
