/* XPM */
static char *_7e4c7da52ba4c2fdc65f8b2210cdace[] = {
/* columns rows colors chars-per-pixel */
"16 16 69 1 ",
"  c #800080",
". c #7F0081",
"X c #8E1372",
"o c #8D1373",
"O c #7E0082",
"+ c #9D2962",
"@ c #AD3F53",
"# c #931B6C",
"$ c #AB3D54",
"% c #81027F",
"& c #880B78",
"* c #AE4152",
"= c #8B1075",
"- c #82037E",
"; c #A73759",
": c #9B2665",
"> c #800180",
", c #A83858",
"< c #86087A",
"1 c #C76438",
"2 c #A73858",
"3 c #880C78",
"4 c #C96836",
"5 c #9E2A62",
"6 c #880D78",
"7 c #AA3C55",
"8 c #86097A",
"9 c #83047D",
"0 c #992367",
"q c #8D1472",
"w c #B2474D",
"e c #CF6F30",
"r c #B54B4A",
"t c #85087B",
"y c #A02D60",
"u c #91186F",
"i c #B95047",
"p c #D67929",
"a c #BC5543",
"s c #D6792A",
"d c #8A0E76",
"f c #A12E5F",
"g c #A3325D",
"h c #B74E49",
"j c #D97F26",
"k c #C76538",
"l c #C66539",
"z c #D4772C",
"x c #941D6B",
"c c #931B6D",
"v c #8C1074",
"b c #A3325C",
"n c #CF6F31",
"m c #CC6C33",
"M c #C25E3D",
"N c #90176F",
"B c #9D2963",
"V c #AD4053",
"C c #82057E",
"Z c #CE6F31",
"A c #C15B3F",
"S c #CC6B34",
"D c #82047D",
"F c #961F6A",
"G c #82047E",
"H c #CB6A34",
"J c #982268",
"K c #890D77",
"L c gray100",
/* pixels */
"                ",
"   .Xo.         ",
"   O+@.         ",
"   .#$%         ",
"    &*=.        ",
"    -;:         ",
"    >,,-        ",
"    <12   O     ",
"    345..678    ",
"    9;0.qwer.   ",
"    tyuuipasd.  ",
"   .=fghjklzx.  ",
"   .cfvbnmMsN.  ",
"   .BV>C:ZASD   ",
"   .F: .G#HJ.   ",
"    %>   -K     "
};
